<svg width="64" height="64" viewBox="0 0 64 64" fill="none" xmlns="http://www.w3.org/2000/svg">
<g clip-path="url(#clip0)">
<mask id="mask0" mask-type="alpha" maskUnits="userSpaceOnUse" x="-7" y="-7" width="77" height="78">
<path d="M48.3816 10.318C60.1475 19.4789 62.1275 36.6126 52.804 48.5873C43.4806 60.5619 26.3843 62.8429 14.6184 53.682C2.85253 44.5211 0.87253 27.3874 10.196 15.4127C19.5194 3.43808 36.6157 1.15709 48.3816 10.318Z" fill="black"/>
</mask>
<g mask="url(#mask0)">
<path fill-rule="evenodd" clip-rule="evenodd" d="M55.9458 43.5292C61.4214 32.1656 58.5715 18.2518 48.3816 10.318C36.6157 1.1571 19.5194 3.43808 10.196 15.4127C0.872549 27.3874 2.85253 44.5211 14.6184 53.682C26.3843 62.8429 43.4806 60.5619 52.804 48.5873C53.2331 48.0362 53.6383 47.4741 54.0196 46.9025L20.3205 31.8633L22.3151 28.7392C22.3151 28.7392 27.0394 20.6238 34.6856 23.8544C41.9209 26.9113 39.7189 35.3786 39.4614 36.2797L55.9458 43.5292Z" fill="black"/>
</g>
</g>
<defs>
<clipPath id="clip0">
<rect width="64" height="64" fill="white"/>
</clipPath>
</defs>
</svg>
