<svg width="100" height="100" viewBox="0 0 100 100" fill="none" xmlns="http://www.w3.org/2000/svg">
<path fill-rule="evenodd" clip-rule="evenodd" d="M17.5424 12C14.4813 12 12 14.4062 12 17.3725V81.6275C12 84.5948 14.4813 87 17.5424 87H81.4576C84.5186 87 87 84.5948 87 81.6275V17.3725C87 14.4062 84.5186 12 81.4576 12H17.5424ZM34.7349 40.9161V74.7828H23.4068V40.9161H34.7349ZM35.4799 30.4416C35.4799 33.6915 33.0211 36.2921 29.0708 36.2921H28.9969C25.1953 36.2921 22.7371 33.6915 22.7371 30.4416C22.7371 27.1184 25.2707 24.59 29.1457 24.59C33.0211 24.59 35.4062 27.1184 35.4799 30.4416ZM52.3311 74.7828H41.0031C41.0031 74.7828 41.152 44.0939 41.0034 40.9161H52.3314V45.7109C52.3058 45.7501 52.2806 45.789 52.2557 45.8276H52.3314V45.7109C53.8368 43.4033 56.5312 40.1214 62.5403 40.1214C69.9933 40.1214 75.5819 44.9617 75.5819 55.3641V74.7828H64.2549V56.6649C64.2549 52.1121 62.6151 49.0064 58.5161 49.0064C55.3867 49.0064 53.5227 51.1009 52.7038 53.1233C52.4047 53.8468 52.3311 54.858 52.3311 55.8702V74.7828Z" fill="white"/>
</svg>
