<svg width="100" height="100" viewBox="0 0 100 100" fill="none" xmlns="http://www.w3.org/2000/svg">
<path fill-rule="evenodd" clip-rule="evenodd" d="M12 13H87V88H12V13ZM29.2626 36.4369C29.7245 36.8532 29.9603 37.4645 29.8977 38.083V60.3522C30.0348 61.1556 29.7815 61.9762 29.2156 62.5627L23.9231 68.9825V69.829H38.9302V68.9825L33.6378 62.5627C33.0677 61.9772 32.7987 61.162 32.9086 60.3522V41.093L46.081 69.829H47.61L58.9241 41.093V63.9972C58.9241 64.6086 58.9241 64.7261 58.5243 65.1259L54.4549 69.0765V69.9231H74.2136V69.0765L70.2854 65.22C69.9386 64.9556 69.7666 64.5212 69.8385 64.0912V35.7549C69.7666 35.325 69.9386 34.8905 70.2854 34.6262L74.3077 30.7696V29.9231H60.3825L50.4561 54.685L39.1655 29.9231H24.5582V30.7696L29.2626 36.4369Z" fill="white"/>
</svg>
